<svg viewBox="0 0 299 98" fill="none" role="img" aria-label="Experian" style="width: 122px; height: 40px; min-height: 40px; min-width: 122px;"><path aria-hidden="true" fill-rule="evenodd" clip-rule="evenodd" d="M48 23.6H37.1c-3.3 0-5.9-2.7-5.9-6V6.7c0-3.2 2.6-5.8 5.9-5.8H48c3.3 0 5.9 2.6 5.9 5.8v10.9c0 3.3-2.6 6-5.9 6z" fill="#406EB3"></path><path aria-hidden="true" fill-rule="evenodd" clip-rule="evenodd" d="M19.8 48H7.5C3.8 48 .9 45.1.9 41.4V29.1c0-3.6 2.9-6.6 6.6-6.6h12.3c3.6 0 6.6 3 6.6 6.6v12.3c0 3.7-3 6.6-6.6 6.6z" fill="#632678"></path><path aria-hidden="true" fill-rule="evenodd" clip-rule="evenodd" d="M18.6 73.5h-7.5c-2.3 0-4.1-1.8-4.1-4V62c0-2.3 1.8-4.1 4.1-4.1h7.5c2.2 0 4 1.8 4 4.1v7.5c0 2.2-1.8 4-4 4z" fill="#982881"></path><path aria-hidden="true" fill-rule="evenodd" clip-rule="evenodd" d="M38.7 97.3h-8.8c-2.7 0-4.8-2.2-4.8-4.8v-8.9c0-2.7 2.1-4.8 4.8-4.8h8.8c2.7 0 4.8 2.1 4.8 4.8v8.9c0 2.6-2.1 4.8-4.8 4.8zM71.2 28h-6.1c-1.8 0-3.3-1.5-3.3-3.3v-6.2c0-1.8 1.5-3.3 3.3-3.3h6.1c1.9 0 3.4 1.5 3.4 3.3v6.2c0 1.8-1.5 3.3-3.4 3.3z" fill="#BA2F7D"></path><path aria-hidden="true" fill-rule="evenodd" clip-rule="evenodd" d="M205.8 32.1c1.9 0 3.5-1.6 3.5-3.6 0-1.9-1.6-3.5-3.5-3.5-2 0-3.6 1.6-3.6 3.5 0 2 1.6 3.6 3.6 3.6zM76.5 69.9c-.6.8-1.5 1.2-2.4 1.2-.6 0-1.2-.1-1.7-.4-.7-.5-1.3-1.5-1.3-2.5 0-.5.1-1 .4-1.4l8.3-12.9-8.3-13c-.3-.4-.4-1-.4-1.4 0-1 .5-2 1.4-2.5.5-.3 1-.4 1.5-.4 1 0 1.9.4 2.5 1.2l6.7 10.6L90 37.8c.5-.8 1.5-1.2 2.4-1.2.6 0 1.1.1 1.5.4.9.5 1.4 1.5 1.4 2.5 0 .4-.1 1-.4 1.4l-8.2 13 8.2 12.9c.3.4.4.9.4 1.4 0 1-.5 2-1.3 2.5-.5.3-1.1.4-1.6.4-1 0-1.9-.4-2.4-1.2l-6.8-10.5-6.7 10.5zM117.5 42c-6.6 0-11.7 5.2-11.7 11.9 0 6.6 5.1 11.8 11.7 11.8 6.7 0 11.9-5.2 11.9-11.8 0-6.7-5.2-11.9-11.9-11.9zm-11.7-1.3c3-2.9 7.2-4.6 11.7-4.6 9.9 0 17.8 7.9 17.8 17.8 0 9.7-7.9 17.6-17.8 17.6-4.5 0-8.7-1.7-11.7-4.5v15.1c0 1.5-1.4 2.8-3 2.8-1.4 0-2.9-1.3-2.9-2.8V39.2c0-1.5 1.5-2.8 2.9-2.8 1.6 0 3 1.3 3 2.8v1.5zM185.4 50.6v17.8c0 1.5-1.4 2.8-2.9 2.8s-2.9-1.3-2.9-2.8V39.2c0-1.5 1.4-2.8 2.9-2.8 1.4 0 2.8 1.2 2.9 2.7 2.4-1.9 5.5-2.9 8.9-3 1.8 0 3.2 1.5 3.2 2.9 0 1.6-1.5 3-3.2 3-4.6.2-8.9 1.8-8.9 8.6zM205.9 36.4c-1.7 0-3 1.3-3 2.8v29.2c0 1.5 1.3 2.8 3 2.8 1.4 0 2.8-1.3 2.8-2.8V39.2c0-1.5-1.4-2.8-2.8-2.8zM231.3 65.6c6.5 0 11.7-5.2 11.7-11.9 0-6.6-5.2-11.8-11.7-11.8-6.7 0-11.9 5.2-11.9 11.8 0 6.7 5.2 11.9 11.9 11.9zM243 39.2c0-1.5 1.4-2.8 3-2.8 1.4 0 2.9 1.3 2.9 2.8v29.2c0 1.5-1.5 2.8-2.9 2.8-1.6 0-3-1.3-3-2.8V67c-3.1 2.8-7.2 4.5-11.7 4.5-9.9 0-17.8-7.9-17.8-17.8 0-9.7 7.9-17.6 17.8-17.6 4.5 0 8.6 1.7 11.7 4.5v-1.4zM278.5 51c0-4.9-4.3-9.1-9.1-9.1s-9.2 1.9-9.2 8.7v17.8c0 1.5-1.4 2.8-2.8 2.8-1.6 0-3-1.3-3-2.8V39.2c0-1.5 1.4-2.8 3-2.8 1.3 0 2.8 1.2 2.8 2.7 2.5-2 5.7-3 9.1-3 8 0 15 6.2 15 14v18.3c0 1.5-1.4 2.8-2.8 2.8-1.6 0-3-1.3-3-2.8V51zM51.9 41.9c5.3 0 9.7 3.5 11.2 8.2H40.6c1.5-4.7 5.9-8.2 11.3-8.2zm17.6 10.9c-.1-9-8.1-16.7-17.6-16.7-9.9 0-17.7 7.9-17.7 17.6 0 9.9 7.8 17.8 17.7 17.8 4.7 0 9.1-1.9 12.3-5 .6-.6 1-1.4 1-2.2 0-1.6-1.4-3-3-3-.8 0-1.7.6-2.3 1.2-2 2.1-4.9 3.1-8 3.1-5.9 0-10.7-4-11.7-9.6h26.4c.1 0 .1-.1.1-.1h.2c.1 0 .2 0 .3-.1 1.3-.3 2.3-1.5 2.3-3zM157.1 41.9c5.3 0 9.7 3.5 11.2 8.2h-22.5c1.5-4.7 5.9-8.2 11.3-8.2zm17.6 10.9c-.1-9-8.2-16.7-17.6-16.7-9.9 0-17.8 7.9-17.8 17.6 0 9.9 7.9 17.8 17.8 17.8 4.7 0 9.1-1.9 12.2-5 .7-.6 1.1-1.4 1.1-2.2 0-1.6-1.4-3-3-3-.9 0-1.7.6-2.3 1.2-2 2.1-4.9 3.1-8 3.1-5.9 0-10.7-4-11.8-9.6h26.5v-.1h.5c1.3-.3 2.4-1.5 2.4-3.1zM290.5 71.2c-.3 0-.5-.2-.5-.4v-5h-1.1c-.3 0-.5-.2-.5-.5s.2-.5.5-.5h3.2c.3 0 .5.2.5.5s-.2.5-.5.5H291v5c0 .2-.3.4-.5.4zM296.2 71.2c-.3 0-.4-.2-.5-.3l-1.4-4.1v4c0 .2-.2.4-.5.4-.2 0-.4-.2-.4-.4v-5.3c0-.4.3-.7.7-.7.3 0 .6.2.7.5l1.4 4.1 1.4-4.1c.1-.3.4-.5.7-.5.4 0 .7.3.7.7v5.3c0 .2-.2.4-.5.4-.2 0-.4-.2-.4-.4v-4c-.3.6-.6 1.6-.9 2.4-.5 1.6-.5 1.6-.5 1.7-.1.2-.3.3-.5.3z" fill="#26478D"></path></svg>